<svg id="Artboard" xmlns="http://www.w3.org/2000/svg" xmlns:xlink="http://www.w3.org/1999/xlink" viewBox="0 0 720 3840"><defs><style>.cls-1{fill:none;}.cls-2{clip-path:url(#clip-path);}.cls-3{fill:#ecd6d9;}.cls-4{fill:#f7c467;}.cls-5{fill:#ec5874;}.cls-6{fill:#58c6b8;}.cls-7{clip-path:url(#clip-path-2);}</style><clipPath id="clip-path"><rect class="cls-1" width="720" height="3840"/></clipPath><clipPath id="clip-path-2"><rect class="cls-1" x="-21" y="-4499" width="1919" height="4318"/></clipPath></defs><title>IMDivas</title><g id="Mobile"><g id="Background"><g class="cls-2"><path class="cls-3" d="M-123.33,1649.71c-30,23.81-63.57,44.39-101,52.69-60.14,13.33-122.62-6.33-178.77-31.58-29.3-13.18-58.32-28.24-81.58-50.34-29.6-28.12-48-65.77-64.19-103.18-15.52-35.82-29.7-72.45-37.76-110.63-25.45-120.62,14.08-250.08,92.22-345.66s191.67-158.8,311.51-189.62c36.87-9.48,75.95-16.06,112.77-6.41C-28.76,875.83,4.55,905.67,35,935.57q61.59,60.48,117.2,126.66c18,21.45,35.83,43.83,45.56,70.06,37.6,101.44-46.71,182.94-103.16,255.64C24.74,1477.91-32.73,1577.72-123.33,1649.71Z"/><path class="cls-4" d="M49.43,987.77c-34.51,13.91-74.1,6.32-108.64-7.5-40.37-16.14-77.17-40.4-109.83-69-32.83-28.75-62.94-64.57-69.27-107.64-7.59-51.62,20.4-101.69,52.38-143,26.65-34.42,57.38-66.61,95.22-88.27,45.52-26.07,110.39-32.34,145.22,6.8,33,37.05,23.4,94.44,39.86,141.16,9.27,26.29,26.94,49.24,34.5,76.07C147.72,863.2,116.81,960.6,49.43,987.77Z"/><path class="cls-5" d="M574.1-77.92C603.36-146,682.73-176,755.12-193.06c53.71-12.67,109.31-22.21,164-14.48,66,9.33,125.9,43.09,190.71,58.46,60.11,14.26,126.72,13.68,176.92,49.57C1339-62.15,1359.6,6,1363.15,70c3.15,57-4.58,114.57-23.61,168.36-8.92,25.21-20.53,49.93-38.3,69.95-16.1,18.14-36.66,31.76-57.6,44.07a701.86,701.86,0,0,1-187.81,76.37c-54.8,13.48-114.46,19.91-166.3-2.35-37.68-16.18-67.72-46.05-103.68-65.73-44.2-24.19-95.3-32-143-48.32-47.37-16.23-92.5-41.79-125.24-79.55S465.7,144,472.74,94.64c4.26-29.87,17.59-57.66,32-84.21,25.15-46.32,55.43-91.86,99.53-120.92"/><path class="cls-6" d="M562.88,1322.4c-25.33-11.92-47.23-33-55.34-59.75-4.91-16.18-4.62-33.42-3.65-50.29a678.21,678.21,0,0,1,8.85-76.93c3.79-21.81,8.85-44,20.76-62.64,18.49-29,50.75-45.87,81.54-61.41,33.48-16.9,69.57-34.29,106.78-29.48,25.17,3.24,48,16.51,67.58,32.64,18,14.89,34.11,32.86,43.07,54.41,30.56,73.44-26.74,164.36-70.37,221.76C719.41,1346.88,622.82,1350.63,562.88,1322.4Z"/><path class="cls-4" d="M1016.08,2070.75c-29.55,25.92-62.16,49-97.24,60.29-56.38,18.18-112.11,4.13-161.55-15.94-25.8-10.47-51.18-22.83-70.67-42.58-24.81-25.13-38.51-60.57-50.23-96-11.22-33.89-21.14-68.68-25.3-105.52-13.17-116.38,34.12-246.93,114-347.45S914.64,1351.36,1027.34,1311c34.67-12.43,71.13-22.19,104.14-15.81,37.07,7.16,65.14,33.67,90.59,60.48A1327.38,1327.38,0,0,1,1319,1470.2c14.73,19.56,29.2,40,35.91,65,25.95,96.5-58.41,183.7-116.43,259.9C1166.66,1889.43,1105.41,1992.35,1016.08,2070.75Z"/><path class="cls-3" d="M516.47,3859.91c19.09,26.34,51.95,39.05,84,44.79,37.41,6.69,76,5.71,113.49-.43,37.7-6.16,76.68-18.85,101.42-48,29.66-34.89,32.23-85.12,27.77-130.69-3.71-38-11.5-76.15-29.44-109.81-21.59-40.5-66.73-75.23-110.76-62.27-41.68,12.28-61.3,59.42-95.24,86.54-19.11,15.27-42.88,24.15-61,40.61C501.64,3721.67,479.19,3808.46,516.47,3859.91Z"/><path class="cls-6" d="M663.48,2772.68c33.43,23.63,64.61,52,84.28,87.86,31.6,57.71,29.91,127.67,20.59,192.79-4.86,34-11.76,68.24-27.6,98.7-20.18,38.75-53.49,68.84-87.21,96.63-32.28,26.6-65.79,52.07-102.72,71.73-116.68,62.1-261.77,60.18-383.44,8.55S-53.13,3179.72-120.49,3066c-20.72-35-39.1-73.11-40.1-113.75-1.13-45.66,19.71-88.73,41.46-128.89C-89.8,2769.2-63.37,2683.1-29,2632c16.74-24.89,40-16.49,64.13-34.29,93.31-68.83,303.52-101.69,395.18-65.48C543.76,2577.05,562.41,2701.23,663.48,2772.68Z"/><path class="cls-5" d="M96.69,2623.07c-20,11.46-44.89,10.12-67.23,4.51-26.11-6.56-50.71-18.41-73.15-33.27s-44-34.47-51.53-60.45c-9-31.15,3.94-64.32,20.06-92.45,13.44-23.43,29.57-45.82,50.94-62.33,25.71-19.87,64.95-29.17,89.6-8,23.34,20,22.31,56.18,36.33,83.56,7.9,15.41,20.67,28.06,27.56,43.94C146.46,2538.14,135.72,2600.7,96.69,2623.07Z"/><path class="cls-3" d="M856.69,2231.07c-20,11.46-44.89,10.12-67.23,4.51-26.11-6.56-50.71-18.41-73.15-33.27s-44-34.47-51.53-60.45c-9-31.15,3.94-64.32,20.06-92.45,13.44-23.43,29.57-45.82,50.94-62.33,25.71-19.87,65-29.17,89.6-8,23.34,20,22.31,56.18,36.33,83.56,7.9,15.41,20.67,28.06,27.56,43.94C906.46,2146.14,895.72,2208.7,856.69,2231.07Z"/></g></g></g><g id="Background-2" data-name="Background"><g class="cls-7"><path class="cls-3" d="M760.52,204.85c-29.84-28.3-106.47-64.75-136.27-93.1-47.89-45.55-67.67-113-78.67-178.19-5.74-34-9.62-68.91-3.76-102.89,7.45-43.26,30.13-82.24,53.9-119.15,22.75-35.33,47-69.95,76.36-100.06,92.67-95.11,232.1-137.65,364.33-125.44s256.66,75.36,355.9,163.59c30.53,27.14,59.78,58,73.17,96.59,15,43.35,8.27,91-.27,136Q1448-26.58,1422,62.68c-8.41,28.94-17.77,58.24-35.42,82.66-68.25,94.41-211.17,133.33-309.95,126.7C954.37,263.84,861.59,300.69,760.52,204.85Z"/></g></g></svg>