<svg id="Laag_1" data-name="Laag 1" xmlns="http://www.w3.org/2000/svg" viewBox="0 0 1220.17 1109.39"><defs><style>.cls-1{fill:#58c6b8;}</style></defs><title>blueEl3</title><path class="cls-1" d="M169,414.19C125.35,445,84.66,482,59,528.87,17.74,604.18,20,695.48,32.11,780.48c6.35,44.35,15.35,89.07,36,128.81C94.47,959.87,138,999.14,182,1035.4c42.13,34.73,85.87,68,134.07,93.63,152.28,81,341.64,78.54,500.44,11.15S1104.26,945.44,1192.17,797c27-45.66,51-95.42,52.34-148.47,1.46-59.59-25.73-115.8-54.12-168.22q-57.42-106-124.81-206.22c-21.85-32.48-45-65-76.52-88.28C867.28,96,592.92,53.12,473.3,100.38,325.24,158.87,300.9,320.94,169,414.19Z" transform="translate(-24.39 -80.93)"/></svg>