<svg id="Laag_1" data-name="Laag 1" xmlns="http://www.w3.org/2000/svg" viewBox="0 0 354.56 341.45"><defs><style>.cls-1{fill:#58c6b8;}</style></defs><title>blueEl</title><path class="cls-1" d="M336.77,57.53c-13-24.68-35-45.53-61.94-52.41C258.51,1,241.34,2,224.58,3.71a674.19,674.19,0,0,0-76.21,12.21C126.81,20.65,105,26.66,86.89,39.34,58.79,59,43.43,91.86,29.31,123.17,14,157.22-1.78,193.9,4.63,230.71,9,255.6,23.19,277.78,40.11,296.5,55.73,313.77,74.33,329,96.19,336.94,170.67,364.09,258.7,303.07,314,257.13,368,212.17,367.51,115.92,336.77,57.53Z" transform="translate(-3.16 -2.21)"/></svg>