<svg id="Laag_1" data-name="Laag 1" xmlns="http://www.w3.org/2000/svg" viewBox="0 0 908.52 772.9"><defs><style>.cls-1{fill:#ec5874;}</style></defs><title>pinkEl</title><path class="cls-1" d="M626.78,873.36c40.91,3.39,83.1,1.72,121.3-13.21,61.38-24,105-78.86,139.64-134.95,18.08-29.27,34.77-60.06,42.12-93.7,9.36-42.81,3-87.44-5.09-130.55-7.77-41.29-17.22-82.49-33-121.43-50-123-162.89-215.13-289.71-253.92S336.43,98.09,211.55,142.09c-38.42,13.53-77.05,31-103.92,61.6C77.45,238.07,65.84,284.63,56.8,329.54Q38.52,420.38,29,512.73c-3.1,29.93-5.45,60.57,1.7,89.83C58.31,715.68,182.13,738.19,276,769.47,392.07,808.19,503.09,863.09,626.78,873.36Z" transform="translate(-25.98 -101.94)"/></svg>