<svg id="Laag_1" data-name="Laag 1" xmlns="http://www.w3.org/2000/svg" viewBox="0 0 895.05 657.9"><defs><style>.cls-1{fill:#ecd6d9;}</style></defs><title>roseEl1</title><path class="cls-1" d="M119.05,536.25c29.34,68.8,108.93,99.07,181.53,116.32C354.44,665.36,410.19,675,465,667.19c66.15-9.42,126.26-43.52,191.25-59.05,60.28-14.4,127.07-13.82,177.42-50.07,52.41-37.74,73.09-106.56,76.65-171.19,3.16-57.52-4.6-115.73-23.68-170.07-8.94-25.46-20.58-50.43-38.4-70.66-16.15-18.32-36.76-32.08-57.76-44.52A701.09,701.09,0,0,0,602.13,24.49c-55-13.61-114.79-20.11-166.77,2.38-37.79,16.34-67.91,46.51-104,66.39C287.07,117.7,235.82,125.57,188,142.08c-47.51,16.39-92.77,42.2-125.59,80.35s-52.07,89.62-45,139.51C21.67,392.12,35,420.19,49.5,447c25.22,46.79,55.59,92.8,99.81,122.16" transform="translate(-15.95 -12.1)"/></svg>