<svg id="Laag_1" data-name="Laag 1" xmlns="http://www.w3.org/2000/svg" viewBox="0 0 926.61 977.13"><defs><style>.cls-1{fill:#ecd6d9;}</style></defs><title>roseEl2</title><path class="cls-1" d="M376.77,916.19c43,9.64,121.2,56,164.22,65.62,69.13,15.39,141-7.31,205.51-36.46,33.68-15.2,67-32.59,93.78-58.1,34-32.47,55.16-75.93,73.79-119.11,17.84-41.35,34.14-83.63,43.4-127.71,29.27-139.24-16.18-288.68-106-399S631.12,58.1,493.36,22.51C451,11.57,406.05,4,363.72,15.12c-47.54,12.52-85.84,47-120.85,81.48q-70.81,69.83-134.73,146.21C87.43,267.57,67,293.41,55.77,323.69c-43.23,117.1,7.52,267.49,72.42,351.41C208.51,779,231.15,883.53,376.77,916.19Z" transform="translate(-39.71 -9.65)"/></svg>