<svg id="Laag_1" data-name="Laag 1" xmlns="http://www.w3.org/2000/svg" viewBox="0 0 448.84 430.89"><defs><style>.cls-1{fill:#f7c467;}</style></defs><title>yellowEl3</title><path class="cls-1" d="M40.66,392.92c16.45,31.13,44.29,57.45,78.42,66.14,20.66,5.26,42.39,3.93,63.6,1.77a856.87,856.87,0,0,0,96.49-15.4c27.29-6,54.92-13.56,77.83-29.56,35.56-24.83,55-66.28,72.89-105.8,19.44-43,39.35-89.25,31.23-135.71-5.49-31.41-23.49-59.39-44.91-83-19.78-21.81-43.32-41-71-51C250.94,6,139.5,83.05,69.56,141,1.12,197.76,1.75,319.23,40.66,392.92Z" transform="translate(-14.15 -31.84)"/></svg>