<svg id="Laag_1" data-name="Laag 1" xmlns="http://www.w3.org/2000/svg" viewBox="0 0 888.9 651.35"><defs><style>.cls-1{fill:#f7c467;}</style></defs><title>yellowEl2</title><path class="cls-1" d="M840.64,305.07C811.5,237,732.45,207,660.36,189.91c-53.49-12.67-108.86-22.21-163.29-14.48-65.69,9.33-125.39,43.09-189.93,58.46-59.87,14.26-126.21,13.69-176.2,49.58C78.88,320.83,58.35,389,54.81,453c-3.14,56.95,4.56,114.57,23.51,168.37,8.88,25.21,20.45,49.93,38.15,70,16,18.14,36.51,31.77,57.36,44.07a697.38,697.38,0,0,0,187,76.38c54.59,13.48,114,19.91,165.63-2.35,37.53-16.19,67.44-46,103.25-65.74,44-24.19,94.92-32,142.41-48.33,47.18-16.23,92.13-41.78,124.73-79.55S948.6,527,941.59,477.64c-4.24-29.88-17.52-57.67-31.87-84.22-25.06-46.32-55.22-91.87-99.13-120.93" transform="translate(-54.13 -172.65)"/></svg>